<svg version="1.1" viewBox="0.0 0.0 936.6745406824147 391.1942257217848" fill="none" stroke="none" stroke-linecap="square" stroke-miterlimit="10" xmlns:xlink="http://www.w3.org/1999/xlink" xmlns="http://www.w3.org/2000/svg"><clipPath id="p.0"><path d="m0 0l936.67456 0l0 391.1942l-936.67456 0l0 -391.1942z" clip-rule="nonzero"/></clipPath><g clip-path="url(#p.0)"><path fill="#000000" fill-opacity="0.0" d="m0 0l936.67456 0l0 391.1942l-936.67456 0z" fill-rule="evenodd"/><path fill="#000000" fill-opacity="0.0" d="m407.80054 118.44751l512.0 0l0 154.2992l-512.0 0z" fill-rule="evenodd"/><path fill="#666666" d="m467.0896 212.67899q0 -4.5 -3.171875 -6.9375q-3.15625 -2.4375 -11.40625 -4.921875q-8.25 -2.484375 -13.125 -5.53125q-9.328125 -5.859375 -9.328125 -15.28125q0 -8.25 6.71875 -13.59375q6.734375 -5.34375 17.46875 -5.34375q7.125 0 12.703125 2.625q5.578125 2.625 8.765625 7.484375q3.1875 4.84375 3.1875 10.75l-11.8125 0q0 -5.34375 -3.359375 -8.359375q-3.34375 -3.03125 -9.578125 -3.03125q-5.8125 0 -9.03125 2.484375q-3.203125 2.484375 -3.203125 6.9375q0 3.75 3.46875 6.265625q3.46875 2.5 11.4375 4.875q7.96875 2.359375 12.796875 5.390625q4.828125 3.015625 7.078125 6.9375q2.25 3.90625 2.25 9.15625q0 8.53125 -6.546875 13.578125q-6.53125 5.03125 -17.734375 5.03125q-7.40625 0 -13.625 -2.734375q-6.203125 -2.75 -9.65625 -7.578125q-3.4375 -4.828125 -3.4375 -11.25l11.859375 0q0 5.8125 3.84375 9.0q3.84375 3.1875 11.015625 3.1875q6.1875 0 9.296875 -2.5q3.125 -2.515625 3.125 -6.640625zm33.28125 17.578125l-11.390625 0l0 -72.0l11.390625 0l0 72.0zm42.703125 0q-0.75 -1.453125 -1.3125 -4.734375q-5.4375 5.671875 -13.3125 5.671875q-7.640625 0 -12.46875 -4.359375q-4.828125 -4.359375 -4.828125 -10.78125q0 -8.109375 6.015625 -12.4375q6.03125 -4.34375 17.234375 -4.34375l6.984375 0l0 -3.328125q0 -3.9375 -2.203125 -6.296875q-2.203125 -2.375 -6.703125 -2.375q-3.890625 0 -6.375 1.953125q-2.484375 1.9375 -2.484375 4.9375l-11.390625 0q0 -4.171875 2.765625 -7.796875q2.765625 -3.640625 7.515625 -5.703125q4.765625 -2.0625 10.625 -2.0625q8.90625 0 14.203125 4.484375q5.296875 4.46875 5.4375 12.578125l0 22.875q0 6.84375 1.921875 10.921875l0 0.796875l-11.625 0zm-12.515625 -8.203125q3.375 0 6.34375 -1.640625q2.984375 -1.640625 4.484375 -4.40625l0 -9.5625l-6.140625 0q-6.328125 0 -9.515625 2.203125q-3.1875 2.203125 -3.1875 6.234375q0 3.28125 2.171875 5.234375q2.1875 1.9375 5.84375 1.9375zm54.984375 0.046875q4.265625 0 7.078125 -2.484375q2.8125 -2.484375 3.0 -6.140625l10.734375 0q-0.1875 4.734375 -2.953125 8.84375q-2.765625 4.09375 -7.5 6.484375q-4.734375 2.390625 -10.21875 2.390625q-10.640625 0 -16.875 -6.890625q-6.234375 -6.890625 -6.234375 -19.03125l0 -1.171875q0 -11.578125 6.1875 -18.53125q6.1875 -6.96875 16.875 -6.96875q9.046875 0 14.734375 5.28125q5.703125 5.265625 5.984375 13.84375l-10.734375 0q-0.1875 -4.359375 -2.984375 -7.171875q-2.78125 -2.8125 -7.09375 -2.8125q-5.53125 0 -8.53125 4.015625q-3.0 4.0 -3.046875 12.15625l0 1.828125q0 8.25 2.96875 12.3125q2.984375 4.046875 8.609375 4.046875zm45.890625 -13.59375l-5.0625 5.203125l0 16.546875l-11.390625 0l0 -72.0l11.390625 0l0 41.53125l3.5625 -4.453125l14.015625 -15.796875l13.6875 0l-18.84375 21.140625l20.859375 29.578125l-13.171875 0l-15.046875 -21.75zm58.640625 21.75l0 -68.25l20.15625 0q9.046875 0 16.046875 4.03125q7.015625 4.03125 10.859375 11.4375q3.84375 7.40625 3.84375 16.96875l0 3.421875q0 9.703125 -3.875 17.0625q-3.859375 7.359375 -11.015625 11.34375q-7.140625 3.984375 -16.375 3.984375l-19.640625 0zm11.859375 -58.6875l0 49.21875l7.734375 0q9.328125 0 14.3125 -5.828125q5.0 -5.84375 5.09375 -16.765625l0 -3.796875q0 -11.109375 -4.828125 -16.96875q-4.828125 -5.859375 -14.015625 -5.859375l-8.296875 0zm76.3125 18.375q-2.25 -0.375 -4.640625 -0.375q-7.828125 0 -10.546875 6.0l0 34.6875l-11.390625 0l0 -50.71875l10.875 0l0.28125 5.671875q4.125 -6.609375 11.4375 -6.609375q2.4375 0 4.03125 0.65625l-0.046875 10.6875zm19.3125 40.3125l-11.390625 0l0 -50.71875l11.390625 0l0 50.71875zm-12.09375 -63.890625q0 -2.625 1.65625 -4.359375q1.671875 -1.734375 4.765625 -1.734375q3.09375 0 4.78125 1.734375q1.6875 1.734375 1.6875 4.359375q0 2.578125 -1.6875 4.296875q-1.6875 1.703125 -4.78125 1.703125q-3.09375 0 -4.765625 -1.703125q-1.65625 -1.71875 -1.65625 -4.296875zm42.375 49.453125l10.734375 -36.28125l11.765625 0l-17.578125 50.71875l-9.890625 0l-17.71875 -50.71875l11.8125 0l10.875 36.28125zm51.9375 15.375q-10.828125 0 -17.5625 -6.8125q-6.71875 -6.828125 -6.71875 -18.171875l0 -1.40625q0 -7.59375 2.921875 -13.5625q2.9375 -5.984375 8.234375 -9.3125q5.296875 -3.328125 11.8125 -3.328125q10.359375 0 16.0 6.609375q5.65625 6.609375 5.65625 18.703125l0 4.59375l-33.140625 0q0.515625 6.28125 4.1875 9.9375q3.6875 3.65625 9.265625 3.65625q7.828125 0 12.75 -6.328125l6.140625 5.859375q-3.046875 4.546875 -8.140625 7.0625q-5.078125 2.5 -11.40625 2.5zm-1.359375 -43.453125q-4.6875 0 -7.578125 3.28125q-2.875 3.28125 -3.671875 9.140625l21.703125 0l0 -0.84375q-0.375 -5.71875 -3.046875 -8.640625q-2.671875 -2.9375 -7.40625 -2.9375z" fill-rule="nonzero"/><path fill="#d0355b" d="m107.7906 351.3054l60.01239 -103.80522l60.012405 103.80522z" fill-rule="evenodd"/><path stroke="#d0355b" stroke-width="1.0" stroke-linejoin="round" stroke-linecap="butt" d="m107.7906 351.3054l60.01239 -103.80522l60.012405 103.80522z" fill-rule="evenodd"/><path fill="#d0355b" d="m287.8766 247.50237l-60.012405 103.80522l-60.01239 -103.80522z" fill-rule="evenodd"/><path fill="#d0355b" d="m227.81447 351.30496l60.012405 -103.80522l60.01239 103.80522z" fill-rule="evenodd"/><path stroke="#d0355b" stroke-width="1.0" stroke-linejoin="round" stroke-linecap="butt" d="m227.81447 351.30496l60.012405 -103.80522l60.01239 103.80522z" fill-rule="evenodd"/><path fill="#c73531" d="m407.8989 247.49974l-60.01239 103.80522l-60.01239 -103.80522z" fill-rule="evenodd"/><path stroke="#c73531" stroke-width="1.0" stroke-linejoin="round" stroke-linecap="butt" d="m407.8989 247.49974l-60.01239 103.80522l-60.01239 -103.80522z" fill-rule="evenodd"/><path fill="#2f1631" d="m167.85164 247.50105l-60.01239 103.80522l-60.01239 -103.80522z" fill-rule="evenodd"/><path stroke="#2f1631" stroke-width="1.0" stroke-linejoin="round" stroke-linecap="butt" d="m167.85164 247.50105l-60.01239 103.80522l-60.01239 -103.80522z" fill-rule="evenodd"/><path fill="#e5b44b" d="m287.87485 247.49918l60.01239 -103.80522l60.01239 103.80522z" fill-rule="evenodd"/><path fill="#98d1dd" d="m47.827187 247.49918l60.01239 -103.80522l60.012398 103.80522z" fill-rule="evenodd"/><path fill="#000000" fill-opacity="0.0" d="m167.85121 247.49918l60.012405 -103.80522l60.01239 103.80522z" fill-rule="evenodd"/><path fill="#e5b44b" d="m347.83984 143.69395l-60.01239 103.80522l-60.012405 -103.80522z" fill-rule="evenodd"/><path stroke="#e5b44b" stroke-width="1.0" stroke-linejoin="round" stroke-linecap="butt" d="m347.83984 143.69395l-60.01239 103.80522l-60.012405 -103.80522z" fill-rule="evenodd"/><path fill="#98d1dd" d="m227.81621 143.69395l-60.01239 103.80522l-60.01239 -103.80522z" fill-rule="evenodd"/><path stroke="#98d1dd" stroke-width="1.0" stroke-linejoin="round" stroke-linecap="butt" d="m227.81621 143.69395l-60.01239 103.80522l-60.01239 -103.80522z" fill-rule="evenodd"/><path fill="#98d1dd" d="m107.79085 143.6934l60.01239 -103.80522l60.012405 103.80522z" fill-rule="evenodd"/><path stroke="#98d1dd" stroke-width="1.0" stroke-linejoin="round" stroke-linecap="butt" d="m107.79085 143.6934l60.01239 -103.80522l60.012405 103.80522z" fill-rule="evenodd"/><path fill="#e5b44b" d="m227.81505 143.6934l60.012405 -103.80522l60.01239 103.80522z" fill-rule="evenodd"/><path stroke="#e5b44b" stroke-width="1.0" stroke-linejoin="round" stroke-linecap="butt" d="m227.81505 143.6934l60.012405 -103.80522l60.01239 103.80522z" fill-rule="evenodd"/><path fill="#869a4a" d="m287.8766 39.888184l-60.012405 103.80522l-60.01239 -103.80522z" fill-rule="evenodd"/><path stroke="#869a4a" stroke-width="1.0" stroke-linejoin="round" stroke-linecap="butt" d="m287.8766 39.888184l-60.012405 103.80522l-60.01239 -103.80522z" fill-rule="evenodd"/></g></svg>